PathFileType	4	(X/Y/Z)	C:/Users/opensim2020/Desktop/walking_exp_matlab/subject06_walking17_straight_03.trc																																																																																																																																					
DataRate	CameraRate	NumFrames	NumMarkers	Units	OrigDataRate	OrigDataStartFrame	OrigNumFrames																																																																																																																																	
100	100	9	45	mm	100	3429	295																																																																																																																																	
Frame#	Time	LFHD			RFHD			LBHD			RBHD			C7			T10			CLAV			STRN			RBAK			LSHO			LUPA			LELB			LFRM			LWRA			LWRB			LFIN			RSHO			RUPA			RELB			RFRM			RWRA			RWRB			RFIN			LASI			RASI			LPSI			RPSI			LTHI			LKNE			LTIB			LANK			LHEE			LTOE			RTHI			RKNE			RTIB			RANK			RHEE			RTOE			*39			*40			*41			*42			*43			*44		
		X1	Y1	Z1	X2	Y2	Z2	X3	Y3	Z3	X4	Y4	Z4	X5	Y5	Z5	X6	Y6	Z6	X7	Y7	Z7	X8	Y8	Z8	X9	Y9	Z9	X10	Y10	Z10	X11	Y11	Z11	X12	Y12	Z12	X13	Y13	Z13	X14	Y14	Z14	X15	Y15	Z15	X16	Y16	Z16	X17	Y17	Z17	X18	Y18	Z18	X19	Y19	Z19	X20	Y20	Z20	X21	Y21	Z21	X22	Y22	Z22	X23	Y23	Z23	X24	Y24	Z24	X25	Y25	Z25	X26	Y26	Z26	X27	Y27	Z27	X28	Y28	Z28	X29	Y29	Z29	X30	Y30	Z30	X31	Y31	Z31	X32	Y32	Z32	X33	Y33	Z33	X34	Y34	Z34	X35	Y35	Z35	X36	Y36	Z36	X37	Y37	Z37	X38	Y38	Z38	X39	Y39	Z39	X40	Y40	Z40	X41	Y41	Z41	X42	Y42	Z42	X43	Y43	Z43	X44	Y44	Z44	X45	Y45	Z45
																																																																																																																																								
222	2.21	628.87305	1667.51379	-1088.41785	605.9624	1650.23792	-959.80371	499.70422	1612.03638	-1115.73242	478.02649	1599.68384	-988.7818	488.88782	1453.99316	-1058.70044	449.90005	1125.60632	-1046.41162	597.15192	1374.40759	-1047.078	633.58734	1198.71277	-1049.49573	408.24597	1285.25232	-981.46735	558.03638	1406.87805	-1212.29382	587.99561	1206.69775	-1285.03821	606.70935	1095.55029	-1296.76685	669.51532	958.1131	-1312.21875	749.43347	861.58771	-1259.69458	699.86426	842.74908	-1306.0625	761.08911	776.58325	-1301.21948	542.0968	1408.46826	-890.54791	495.9819	1211.20984	-804.18243	503.10388	1089.11182	-791.70166	520.04205	970.12036	-774.19897	584.18915	832.4126	-803.90002	529.53833	832.66095	-765.31683	568.75476	757.94104	-761.599	633.58795	962.02832	-1141.93323	620.91193	972.7981	-920.90057	473.95398	992.16797	-1121.34399	470.55811	994.93457	-952.60406	555.20825	646.41748	-1188.65381	543.38245	483.49927	-1161.39478	485.03546	232.39499	-1141.15186	465.00531	64.26028	-1086.75806	423.06046	53.04367	-1041.2981	609.67352	35.0653	-1081.87549	638.49023	646.24231	-862.35199	680.83124	527.7514	-885.75262	573.22968	289.22989	-885.20471	502.59998	115.58758	-923.27686	460.60336	97.39308	-970.24188	638.76971	48.52561	-912.74921	519.20526	1701.97314	-1047.00439	NaN	NaN	NaN	NaN	NaN	NaN	NaN	NaN	NaN	NaN	NaN	NaN	NaN	NaN	NaN
223	2.22	635.23761	1667.27356	-1088.3457	612.14703	1649.69006	-959.77985	506.08099	1611.82239	-1115.93469	484.20264	1599.17041	-989.03894	495.26135	1453.70984	-1059.28296	455.98016	1125.33069	-1047.2196	603.36053	1374.03271	-1047.61584	639.57385	1198.27551	-1050.2124	414.19907	1285.05957	-982.51544	564.68726	1406.7356	-1212.82019	596.06415	1206.77612	-1285.36096	615.79608	1095.76013	-1297.06836	680.65039	959.24078	-1312.03406	761.92914	864.22046	-1258.74377	712.63367	844.1709	-1304.98901	774.88629	779.17554	-1299.97449	548.06213	1407.86462	-891.07019	500.97977	1210.56165	-805.21753	507.7081	1088.4231	-792.83002	524.16217	969.37451	-775.34967	587.94745	831.47101	-804.87561	533.09631	831.91406	-766.54773	571.98523	757.10315	-762.60992	639.30621	961.5036	-1142.67798	626.9801	972.74689	-921.39441	479.57382	991.73846	-1121.65942	476.61304	994.75488	-952.9657	559.69806	645.93036	-1188.56213	547.15765	482.93771	-1161.05652	486.70697	232.37184	-1141.02209	465.19809	64.42237	-1086.61731	423.20093	53.32257	-1041.12048	609.76233	34.98549	-1081.82068	646.15759	646.78204	-862.91138	689.10614	528.5553	-887.09564	588.64514	286.6925	-886.30383	524.17688	110.72267	-924.61713	482.70709	91.42769	-971.75201	662.33411	47.79838	-913.84644	525.48621	1701.57214	-1046.94592	NaN	NaN	NaN	NaN	NaN	NaN	NaN	NaN	NaN	NaN	NaN	NaN	NaN	NaN	NaN
224	2.23	641.61078	1667.01941	-1088.24243	618.35364	1649.11877	-959.72614	512.45978	1611.62817	-1116.09265	490.5271	1598.6676	-989.25256	501.67441	1453.42432	-1059.8783	461.90625	1125.09888	-1047.91553	609.59656	1373.66113	-1048.07739	645.65277	1197.86523	-1050.96777	420.19656	1284.71814	-983.60034	571.27289	1406.51697	-1213.25916	604.04376	1206.77869	-1285.65833	624.6795	1095.89563	-1297.29443	691.82361	960.35883	-1312.0647	774.09241	866.70288	-1257.88806	725.29346	845.71228	-1303.95813	788.53131	781.76263	-1298.51782	553.96277	1407.26245	-891.56543	506.06546	1209.89832	-806.2193	512.35168	1087.78748	-793.95679	528.29578	968.63654	-776.46472	591.64508	830.51544	-805.81488	536.60181	831.21881	-767.6073	575.45428	756.2489	-763.75726	645.01593	960.96313	-1143.39307	633.20728	972.68488	-921.9549	485.37735	991.25214	-1122.01929	482.73386	994.42365	-953.37878	564.20947	645.47748	-1188.55273	551.09998	482.58954	-1161.11108	488.43274	232.45306	-1140.93848	465.42941	64.60334	-1086.51855	423.39215	53.63226	-1041.0094	609.84979	35.06786	-1081.85315	653.43073	647.35815	-863.62616	697.31433	529.34576	-888.00433	604.2049	284.22501	-887.31866	545.61725	106.36443	-925.66858	504.87656	85.85937	-972.99438	685.89526	47.07218	-915.26917	531.82129	1701.22791	-1046.87988	NaN	NaN	NaN	NaN	NaN	NaN	NaN	NaN	NaN	NaN	NaN	NaN	NaN	NaN	NaN
225	2.24	648.13098	1666.78662	-1088.10815	624.61292	1648.52063	-959.66211	518.95294	1611.41479	-1116.24463	496.73071	1598.14648	-989.42554	507.99326	1453.078	-1060.44385	467.9353	1124.77368	-1048.5675	615.74414	1373.27112	-1048.46167	651.63898	1197.38745	-1051.52417	426.19427	1284.44873	-984.53271	577.83325	1406.13965	-1213.65613	611.90814	1206.67639	-1285.83374	633.44189	1095.83374	-1297.43042	702.17072	961.05792	-1311.01282	786.10504	869.2088	-1256.78015	737.70416	847.10559	-1302.80115	802.0545	784.32214	-1296.94812	559.85907	1406.64514	-891.98773	511.1796	1209.28442	-807.17767	516.98639	1087.11682	-795.06354	532.50385	967.89734	-777.56909	595.32611	829.51935	-806.77002	539.99878	830.37061	-768.82959	578.60101	755.25604	-764.63574	650.6546	960.41266	-1143.99646	639.47247	972.61432	-922.59241	491.21902	990.7478	-1122.4231	488.70731	994.16711	-953.69354	568.63373	644.90131	-1188.80286	555.11768	482.06183	-1160.79456	490.26135	232.44	-1140.87012	465.7197	64.7685	-1086.44458	423.48071	54.04261	-1040.84839	610.04669	35.07369	-1081.7959	660.46179	647.63062	-864.11804	705.2381	529.93909	-888.82141	619.70374	281.83817	-888.23193	567.66705	101.90036	-926.8717	527.51959	80.22109	-974.17584	709.35291	46.4253	-917.19141	538.16345	1700.84375	-1046.75952	NaN	NaN	NaN	NaN	NaN	NaN	NaN	NaN	NaN	NaN	NaN	NaN	NaN	NaN	NaN
226	2.25	654.6062	1666.43323	-1087.94519	630.85004	1647.90747	-959.52704	525.36853	1611.20068	-1116.35999	503.03738	1597.65137	-989.64728	514.48065	1452.70313	-1060.98474	474.04987	1124.37244	-1049.19043	622.07562	1372.82898	-1048.88904	657.80701	1196.94543	-1052.10999	432.28909	1283.9751	-985.48389	584.53821	1405.88159	-1214.05652	619.69611	1206.5083	-1286.00781	642.12329	1095.78271	-1297.53015	712.71576	961.91876	-1310.49866	797.88879	871.65002	-1255.49377	749.98193	848.50232	-1301.55579	815.26501	786.82697	-1295.16614	565.8028	1406.09399	-892.41602	516.36108	1208.62939	-808.04388	521.81201	1086.50012	-796.08148	536.77283	967.20239	-778.65161	599.18134	828.55609	-807.67664	543.82098	829.59753	-770.06897	581.75848	754.35919	-765.745	656.50763	959.87988	-1144.72375	645.78241	972.37799	-923.06787	497.03864	990.21661	-1122.79907	494.99252	993.81042	-954.15179	573.60913	644.42224	-1188.57336	559.11011	481.61771	-1160.75879	492.2337	232.43947	-1140.81714	466.04651	64.98152	-1086.3811	423.76282	54.49512	-1040.82031	610.29626	35.14938	-1081.81335	667.35901	647.69733	-864.56952	712.82819	530.30743	-889.40454	635.12415	279.4967	-889.00525	589.39075	97.84942	-927.93219	548.84521	75.95676	-974.68903	732.89111	46.1819	-919.45612	544.56427	1700.4541	-1046.65918	NaN	NaN	NaN	NaN	NaN	NaN	NaN	NaN	NaN	NaN	NaN	NaN	NaN	NaN	NaN
227	2.26	661.08893	1666.04138	-1087.73523	637.16565	1647.29126	-959.42725	531.90601	1610.92371	-1116.4624	509.28812	1597.15259	-989.76282	520.77362	1452.31189	-1061.46191	480.17889	1123.9978	-1049.80505	628.28223	1372.40417	-1049.1759	663.89978	1196.46753	-1052.58765	438.28415	1284.08948	-986.01819	591.10272	1405.37036	-1214.34814	627.46625	1206.29199	-1286.15222	650.65173	1095.68823	-1297.65308	723.01685	962.6618	-1309.80603	809.41931	874.03357	-1254.11548	761.92511	849.89606	-1300.14246	828.29938	789.35889	-1293.31396	571.7677	1405.52856	-892.77319	521.62836	1208.05139	-808.86267	526.70575	1085.86816	-797.02338	541.15088	966.48834	-779.68182	602.95685	827.5589	-808.58643	547.46362	828.85797	-771.22626	585.0575	753.45569	-766.74915	662.28632	959.26678	-1145.34143	652.1463	972.1073	-923.58032	502.82986	989.74902	-1123.17712	501.16583	993.42877	-954.51251	578.41071	643.9231	-1188.56885	562.90668	481.11716	-1160.79688	494.23193	232.42683	-1140.83154	466.39813	65.21924	-1086.3761	423.98444	54.93306	-1040.80481	610.45972	35.07816	-1081.74146	674.11603	647.64233	-864.78088	720.21149	530.5351	-889.90576	650.44519	277.23563	-889.76062	611.12299	94.16778	-928.88165	571.43646	70.79779	-975.64673	756.18738	46.40177	-921.99774	551.01849	1700.03027	-1046.53772	NaN	NaN	NaN	NaN	NaN	NaN	NaN	NaN	NaN	NaN	NaN	NaN	NaN	NaN	NaN
228	2.27	667.43951	1665.51794	-1087.47156	643.48212	1646.65503	-959.29651	538.37616	1610.61731	-1116.54297	515.58569	1596.65393	-989.86102	527.15247	1451.84619	-1061.84705	486.35165	1123.61731	-1050.30322	634.58179	1371.90686	-1049.49646	670.1087	1195.96643	-1053.02405	444.53653	1283.18274	-986.92004	597.8288	1405.00818	-1214.67529	634.98938	1205.99536	-1286.198	659.04004	1095.50537	-1297.63367	733.19122	963.41284	-1309.06799	820.72461	876.41461	-1252.69727	773.73413	851.28943	-1298.70471	841.02332	791.81317	-1291.32092	577.79144	1404.98523	-893.0611	526.93365	1207.47498	-809.63965	531.61316	1085.24841	-797.93542	545.54382	965.78809	-780.66199	606.81421	826.60254	-809.42505	551.22662	828.13965	-772.26978	588.44434	752.49249	-767.74829	668.09973	958.66138	-1145.97778	658.50708	971.76331	-924.15808	508.81979	989.14606	-1123.52319	507.64328	993.00006	-954.91205	583.17938	643.34979	-1188.66516	566.63379	480.69327	-1161.11621	496.00873	232.38765	-1140.85181	466.6499	65.43954	-1086.37549	424.20261	55.3811	-1040.80579	610.6283	35.2254	-1081.80176	680.80707	647.28638	-864.83258	727.34534	530.46826	-890.23224	665.57257	275.09079	-890.48108	632.48816	90.87922	-929.63843	593.17047	66.88825	-976.39838	779.28564	46.95957	-924.79102	557.51355	1699.55884	-1046.44189	NaN	NaN	NaN	NaN	NaN	NaN	NaN	NaN	NaN	NaN	NaN	NaN	NaN	NaN	NaN
229	2.28	674.14075	1665.12329	-1087.26782	649.81555	1645.97363	-959.10791	544.93561	1610.28735	-1116.62097	521.95306	1596.1333	-990.06812	533.55414	1451.35559	-1062.18274	492.54102	1123.15393	-1050.76477	640.849	1371.39783	-1049.66028	676.32385	1195.37805	-1053.37415	450.74658	1282.64917	-987.54999	604.3811	1404.49219	-1214.88025	642.45374	1205.66675	-1286.23975	667.20209	1095.34473	-1297.69885	743.12634	964.11786	-1308.24817	831.78882	878.80695	-1251.04419	785.26111	852.67078	-1297.20288	853.45746	794.2522	-1289.29321	583.82489	1404.40698	-893.32898	532.33063	1206.94702	-810.26416	536.68274	1084.67175	-798.79041	550.03888	965.10803	-781.56555	610.85803	825.6264	-810.2619	555.05066	827.48749	-773.19476	591.90643	751.55731	-768.77325	674.00433	957.98932	-1146.59985	665.11005	971.44391	-924.72449	514.76654	988.54114	-1123.85156	513.96606	992.58337	-955.20148	587.97095	642.74652	-1188.7843	570.2196	480.13275	-1161.05432	497.62659	232.46332	-1140.97083	466.88376	65.69983	-1086.39673	424.34998	55.9041	-1040.87988	610.66748	34.99614	-1081.62231	687.22223	646.92993	-864.86823	734.2207	530.25092	-890.49109	680.59204	273.13013	-891.13806	654.29071	87.72861	-930.91937	614.52704	63.10964	-977.10614	802.23431	47.83837	-927.77539	564.01538	1699.1123	-1046.3053	NaN	NaN	NaN	NaN	NaN	NaN	NaN	NaN	NaN	NaN	NaN	NaN	NaN	NaN	NaN
230	2.29	680.67719	1664.64502	-1087.02393	656.11371	1645.28162	-958.94196	551.492	1609.90808	-1116.67773	528.276	1595.57593	-990.14093	539.97217	1450.82874	-1062.47778	498.76379	1122.68188	-1051.10559	647.17816	1370.85352	-1049.88135	682.58783	1194.83813	-1053.7196	457.00366	1282.11816	-988.07886	610.88995	1403.8833	-1214.99829	649.7843	1205.27759	-1286.21936	675.2392	1094.96985	-1297.52307	753.16986	964.9693	-1307.87817	842.59149	881.08813	-1249.49316	796.54877	853.99518	-1295.58411	865.49658	796.56744	-1287.10413	589.95441	1403.85498	-893.50696	537.90381	1206.39392	-810.85742	541.86658	1084.09558	-799.56555	554.64862	964.42993	-782.38983	614.93561	824.71796	-811.02576	559.01923	826.69556	-774.25824	595.65253	750.67041	-769.88293	679.98267	957.31952	-1147.32202	671.79645	970.98157	-925.3772	520.81415	988.00928	-1124.10754	520.56317	992.15314	-955.50189	592.63452	642.20691	-1188.98303	573.65088	479.7442	-1161.4303	499.13321	232.56432	-1141.06653	467.16129	66.04198	-1086.44482	424.56821	56.43977	-1040.94531	610.72522	34.92167	-1081.6145	693.74194	646.62317	-864.82672	740.74927	529.84399	-890.79572	695.50293	271.30215	-891.76349	675.6908	85.13889	-931.92139	636.2265	59.84333	-977.89307	824.8114	48.73904	-930.62445	570.52472	1698.62817	-1046.23706	NaN	NaN	NaN	NaN	NaN	NaN	NaN	NaN	NaN	NaN	NaN	NaN	NaN	NaN	NaN
